<?xml version="1.0" standalone="no"?>
<!DOCTYPE svg PUBLIC "-//W3C//DTD SVG 20010904//EN"
 "http://www.w3.org/TR/2001/REC-SVG-20010904/DTD/svg10.dtd">
<svg version="1.0" xmlns="http://www.w3.org/2000/svg"
 width="2864.000000pt" height="2792.000000pt" viewBox="0 0 2864.000000 2792.000000"
 preserveAspectRatio="xMidYMid meet">

<g transform="translate(0.000000,2792.000000) scale(0.100000,-0.100000)"
fill="#000000" stroke="none">
<path d="M0 13960 l0 -13960 14320 0 14320 0 0 13960 0 13960 -14320 0 -14320
0 0 -13960z m13927 12203 c130 -189 164 -240 318 -488 65 -104 171 -269 235
-365 329 -493 502 -805 713 -1280 205 -465 277 -668 372 -1060 67 -278 89
-353 101 -356 5 -2 29 29 54 68 61 97 120 167 285 342 267 284 573 518 948
725 347 191 658 324 977 416 202 58 532 136 551 130 10 -4 28 -1 39 5 12 7 23
10 25 8 7 -7 -28 -235 -65 -428 -59 -302 -58 -298 -70 -520 -6 -113 -15 -245
-20 -295 -5 -49 -12 -130 -15 -180 -5 -90 -21 -223 -51 -430 -9 -60 -20 -146
-24 -190 -15 -142 -47 -289 -76 -353 -8 -18 -13 -36 -10 -41 5 -8 -9 -72 -24
-106 -14 -32 -57 -167 -64 -200 -4 -16 -23 -82 -42 -145 -19 -63 -39 -131 -45
-150 -6 -19 -19 -57 -31 -85 -33 -80 -36 -89 -43 -115 -8 -27 -19 -56 -55
-135 -13 -27 -35 -80 -51 -117 -15 -37 -50 -111 -78 -164 -27 -54 -48 -101
-45 -106 8 -13 32 -10 134 18 52 14 136 33 185 43 149 31 237 51 246 57 23 14
321 47 479 53 165 6 428 -1 495 -12 17 -3 75 -8 130 -12 55 -3 109 -8 120 -11
21 -4 67 -10 155 -20 68 -7 350 -74 485 -116 55 -17 129 -47 165 -66 36 -20
69 -35 73 -34 5 1 11 -6 14 -17 3 -12 11 -17 19 -14 8 3 14 1 14 -5 0 -15
-171 -192 -184 -189 -6 1 -10 -4 -8 -11 1 -7 -8 -16 -20 -21 -13 -5 -41 -30
-63 -56 -107 -127 -138 -160 -147 -157 -5 1 -7 -2 -3 -7 3 -6 -9 -20 -26 -33
-17 -13 -35 -33 -40 -46 -5 -13 -13 -21 -18 -17 -5 3 -13 -5 -17 -17 -3 -12
-32 -55 -63 -95 -31 -40 -108 -146 -171 -234 -416 -582 -765 -963 -1170 -1279
-487 -379 -890 -586 -1413 -726 -59 -16 -106 -33 -104 -38 2 -5 66 -43 142
-85 157 -86 217 -125 355 -232 129 -99 421 -392 589 -589 35 -41 145 -162 245
-268 99 -106 182 -199 184 -205 2 -7 -1 -5 -7 3 -5 8 -13 11 -17 7 -4 -4 3
-18 16 -32 l23 -24 -29 -7 c-16 -4 -33 -10 -39 -14 -11 -9 -258 -82 -470 -141
-290 -79 -450 -112 -600 -124 -44 -4 -93 -8 -110 -11 -16 -2 -131 -7 -255 -10
-247 -7 -613 7 -805 32 -419 53 -904 211 -1176 383 -35 22 -66 38 -71 35 -4
-3 -15 -31 -23 -62 -9 -31 -24 -79 -35 -107 -10 -27 -35 -95 -55 -150 -164
-449 -328 -698 -713 -1085 -118 -118 -230 -234 -250 -258 -48 -58 -64 -66
-104 -49 -36 15 -345 326 -495 498 -113 127 -224 275 -283 371 -151 252 -286
574 -317 757 -8 53 -19 100 -23 104 -4 5 -27 -2 -51 -16 -24 -13 -73 -41 -108
-61 -262 -149 -721 -294 -1151 -361 -239 -37 -746 -44 -1110 -14 -230 18 -511
72 -760 145 -222 65 -420 142 -420 162 0 4 55 69 123 143 67 74 201 223 297
330 412 459 598 621 951 834 79 48 145 88 147 90 9 8 -78 43 -148 60 -105 25
-247 76 -413 147 -516 221 -850 451 -1321 908 -168 164 -333 359 -561 665
-476 636 -457 614 -713 888 -171 182 -252 279 -252 299 0 14 150 81 263 117
185 59 408 107 668 143 145 20 205 22 524 22 282 0 384 -3 470 -16 136 -20
429 -80 590 -120 177 -44 206 -50 212 -44 3 3 -22 51 -56 108 -158 265 -292
611 -415 1069 -86 320 -163 859 -205 1439 -24 319 -37 443 -95 870 -41 306
-41 304 -23 297 8 -3 137 -37 286 -76 379 -99 629 -187 948 -335 385 -178 571
-284 813 -465 304 -226 481 -404 779 -785 24 -30 47 -54 51 -51 4 3 10 33 14
67 8 72 48 249 112 493 60 225 169 543 247 715 13 30 37 84 53 120 138 316
356 702 669 1185 177 273 201 312 343 550 181 305 215 361 290 468 41 59 78
107 83 107 4 0 57 -71 116 -157z m1990 -14764 c42 -83 131 -285 208 -470 42
-101 126 -299 185 -439 60 -140 124 -293 143 -340 19 -47 69 -168 112 -270 42
-102 92 -221 110 -265 218 -532 307 -719 400 -843 45 -60 83 -90 203 -161 40
-24 82 -55 92 -69 23 -28 26 -58 8 -65 -17 -6 -1064 3 -1105 9 -31 5 -33 8
-33 44 0 52 23 66 120 75 109 9 191 26 196 40 15 38 -179 586 -252 713 l-19
32 -540 -2 -540 -3 -96 -290 c-102 -306 -137 -430 -126 -441 7 -7 100 -24 242
-43 50 -7 97 -16 105 -20 21 -11 34 -70 20 -99 l-11 -24 -477 7 c-262 4 -480
9 -484 12 -13 7 -9 32 13 82 l20 48 79 7 c44 3 86 9 95 12 29 12 174 281 268
499 60 141 168 407 192 476 9 24 65 160 125 304 60 143 165 402 233 575 253
639 354 858 426 921 24 22 49 38 55 36 6 -2 21 -23 33 -48z m6361 18 c27 -28
102 -195 289 -637 179 -421 182 -429 298 -715 51 -126 117 -282 145 -345 28
-63 74 -169 102 -235 28 -66 96 -223 153 -350 173 -386 197 -421 347 -496 57
-28 111 -59 122 -68 26 -23 49 -72 39 -82 -14 -14 -1142 -12 -1159 2 -22 18
-17 57 10 75 25 16 50 23 228 64 54 13 102 28 108 35 6 8 -5 51 -34 136 -77
217 -152 411 -194 502 l-41 87 -549 0 -550 0 -10 -27 c-6 -16 -49 -145 -96
-288 -86 -265 -114 -371 -104 -396 7 -17 72 -39 222 -73 60 -14 113 -31 117
-38 11 -16 11 -59 1 -75 -6 -9 -120 -12 -462 -13 -250 -1 -470 -1 -487 0 -47
0 -42 20 20 77 38 34 71 54 113 66 101 32 124 53 183 168 30 57 57 109 61 114
11 14 157 356 190 445 44 117 193 491 255 640 31 74 120 293 197 485 301 753
347 857 416 928 20 20 39 37 42 37 4 0 16 -10 28 -23z m-17749 -59 c9 -5 62
-67 117 -137 271 -337 410 -509 524 -646 69 -83 141 -170 160 -195 53 -68 364
-454 445 -550 39 -47 116 -139 170 -204 131 -157 267 -333 309 -401 l19 -30
-23 20 -23 20 18 -32 c10 -18 22 -30 26 -27 5 2 13 -5 19 -17 22 -40 30 -6 20
81 -5 47 -10 310 -11 585 -1 275 -4 658 -8 851 l-6 351 -30 49 c-39 62 -106
112 -205 153 -82 34 -100 55 -100 117 l0 23 458 -1 c253 0 465 -3 472 -8 18
-11 -5 -76 -33 -94 -25 -16 -114 -47 -200 -71 -95 -26 -94 -22 -101 -256 -4
-112 -8 -716 -10 -1341 -3 -1095 -3 -1139 -22 -1159 -10 -11 -26 -18 -36 -16
-10 3 -18 1 -18 -3 0 -17 -58 -21 -87 -7 -53 28 -218 219 -700 812 -117 143
-287 352 -379 465 -92 113 -213 264 -268 335 -55 72 -154 195 -221 275 -66 80
-168 204 -227 275 -58 72 -116 141 -128 155 l-21 25 4 -1013 c3 -868 5 -1014
17 -1026 18 -17 191 -76 310 -106 47 -12 91 -26 98 -32 17 -15 15 -59 -4 -87
l-16 -23 -522 7 c-286 4 -531 12 -544 16 -27 10 -36 31 -28 62 7 30 55 51 160
72 92 18 164 54 210 106 l34 37 7 183 c4 101 5 600 3 1109 l-3 925 -23 47
c-44 90 -98 123 -329 207 -59 22 -61 24 -73 68 -6 25 -7 50 -3 54 15 15 98 17
442 12 205 -3 351 -9 360 -15z m6016 -2 c61 -9 137 -24 170 -33 87 -23 232
-94 289 -140 71 -60 150 -170 184 -260 54 -139 81 -352 62 -483 -31 -218 -236
-451 -484 -552 -39 -16 -75 -33 -79 -37 -13 -13 51 -124 244 -423 282 -435
435 -625 579 -719 56 -36 205 -99 236 -99 50 0 149 -25 165 -41 27 -27 25 -75
-3 -93 -30 -20 -88 -21 -363 -12 -273 9 -323 16 -392 61 -78 51 -230 202 -320
317 -147 189 -221 308 -390 633 -63 121 -124 234 -135 252 l-19 32 -200 3
-199 3 1 -445 c1 -245 4 -483 7 -529 l7 -83 110 -39 c61 -22 153 -46 205 -55
126 -20 142 -31 138 -92 l-3 -47 -620 3 c-680 4 -665 3 -665 62 0 38 27 52
139 74 46 10 119 27 163 38 l78 21 0 1223 c0 1395 12 1248 -100 1282 -36 11
-112 34 -170 52 -116 35 -153 62 -148 109 l3 26 300 5 c566 10 1088 4 1210
-14z m7785 -1 c12 -11 70 -83 129 -160 99 -129 398 -499 546 -675 35 -41 126
-152 202 -246 146 -181 380 -469 499 -613 73 -89 331 -425 373 -486 13 -19 25
-34 26 -32 0 1 -2 142 -6 312 -4 171 -7 602 -8 958 -1 432 -5 663 -12 692
l-11 43 -106 31 c-59 17 -138 38 -175 47 -51 13 -74 24 -92 46 -32 38 -33 83
-2 92 12 3 234 6 493 6 446 0 472 -1 488 -19 13 -14 14 -24 7 -44 -13 -35 -66
-60 -181 -87 -159 -37 -150 -29 -151 -124 0 -44 -2 -445 -3 -891 -5 -1863 -4
-1753 -26 -1775 -21 -21 -68 -26 -131 -13 -57 11 -136 98 -596 659 -94 115
-220 270 -279 344 -59 74 -142 176 -184 225 -42 50 -170 206 -284 348 -114
142 -252 313 -308 380 -55 67 -143 175 -195 240 -52 64 -96 117 -97 117 -2 0
10 -2025 12 -2027 6 -5 104 -37 233 -77 168 -52 202 -73 197 -120 l-3 -31
-510 -3 c-280 -1 -525 0 -542 3 -31 6 -33 8 -33 49 0 53 12 62 126 101 112 39
204 85 222 113 18 27 18 67 15 1418 l-3 901 -27 28 c-33 33 -175 102 -291 140
-89 30 -97 39 -90 106 l3 34 95 6 c52 3 222 5 376 5 267 -1 283 -2 304 -21z
m-9806 -7 c18 -30 -29 -64 -169 -121 l-130 -53 -3 -1194 c-2 -657 0 -1228 3
-1268 6 -63 9 -73 28 -77 125 -27 285 -69 295 -77 19 -16 14 -45 -10 -62 -20
-14 -86 -16 -538 -15 -283 1 -528 4 -545 8 -20 4 -33 15 -39 33 -5 15 -6 31
-3 35 4 4 85 33 180 64 l172 57 3 1219 c1 670 0 1228 -3 1239 -4 17 -27 29
-117 58 -62 20 -130 44 -151 53 -40 17 -77 66 -77 102 l0 21 546 -2 c507 -3
548 -4 558 -20z m4374 -17 c8 -78 -18 -91 -209 -111 -64 -7 -122 -16 -129 -20
-11 -7 -9 -29 9 -117 44 -205 128 -438 446 -1238 78 -198 166 -425 195 -505
85 -235 123 -329 132 -324 4 3 8 13 8 22 0 9 9 44 19 77 36 115 65 181 273
628 32 70 102 223 155 340 237 526 234 519 337 772 42 102 73 198 80 251 6 41
6 41 -37 58 -23 9 -104 29 -180 45 -76 15 -140 31 -144 34 -9 10 -21 99 -16
115 5 10 95 12 474 10 416 -3 470 -5 485 -19 15 -15 15 -19 0 -48 -19 -35 -67
-63 -149 -84 -80 -21 -100 -37 -143 -113 -50 -89 -265 -543 -360 -757 -42 -95
-93 -210 -114 -257 -127 -284 -425 -965 -485 -1110 -14 -36 -72 -157 -128
-269 -80 -161 -112 -216 -155 -262 -30 -33 -58 -59 -64 -59 -5 0 -31 20 -57
45 -56 53 -76 95 -205 430 -46 121 -119 303 -161 405 -94 225 -262 650 -412
1040 -69 180 -214 533 -258 628 -52 110 -117 191 -183 228 -109 61 -182 115
-198 145 -17 34 -12 45 26 52 14 2 277 4 585 3 l560 -1 3 -34z m-873 -4181
c17 -17 46 -59 63 -95 77 -154 248 -541 342 -774 21 -53 53 -129 70 -170 17
-41 28 -81 26 -88 -4 -9 -27 -13 -83 -12 -127 2 -121 -4 -175 144 l-48 130
-266 0 -266 0 -32 -85 c-38 -101 -71 -166 -88 -176 -18 -11 -208 -15 -208 -4
0 4 22 55 49 112 65 135 180 392 196 437 7 20 40 97 73 171 33 74 81 186 108
249 55 130 79 170 114 189 37 19 89 7 125 -28z m9171 7 c31 -37 65 -109 191
-402 178 -413 308 -733 301 -740 -3 -3 -44 -8 -91 -11 l-85 -5 -25 33 c-13 18
-38 69 -56 113 -17 44 -41 95 -52 114 l-20 34 -255 -5 c-184 -3 -258 -8 -267
-17 -6 -6 -30 -60 -52 -119 -36 -96 -44 -109 -75 -124 -21 -11 -58 -18 -93
-18 -68 0 -77 12 -54 68 8 20 83 204 166 407 167 406 283 657 318 685 15 12
40 18 73 18 44 0 53 -4 76 -31z m-14982 -30 c47 -48 82 -99 248 -354 31 -48
68 -101 80 -117 l24 -28 35 58 c63 104 260 408 282 436 19 24 35 30 115 44 52
8 96 14 98 12 6 -7 6 -1160 -1 -1166 -9 -10 -188 -3 -198 7 -6 6 -5 152 1 353
5 188 6 349 2 357 -6 11 -10 10 -18 -6 -13 -23 -140 -195 -249 -337 l-76 -99
-24 29 c-22 27 -188 262 -290 413 l-44 64 2 -389 2 -389 -94 0 -94 0 -3 515
c-3 513 1 640 19 640 6 0 9 -8 7 -17 -2 -13 5 -19 25 -21 15 -2 27 1 27 7 0 6
-4 11 -10 11 -5 0 -10 7 -10 15 0 11 12 15 47 15 43 0 51 -4 97 -53z m1940 28
c39 -36 191 -352 342 -710 30 -71 85 -192 121 -267 36 -76 63 -144 60 -152 -8
-21 -112 -30 -167 -13 -49 14 -63 35 -139 207 l-33 75 -256 -3 c-184 -2 -260
-6 -269 -15 -15 -15 -73 -174 -73 -201 0 -12 -4 -27 -8 -33 -13 -20 -114 -36
-177 -28 -52 6 -57 9 -52 28 4 18 123 295 172 402 7 17 47 113 88 215 122 303
190 434 253 489 45 40 99 42 138 6z m1371 -4 c196 -33 265 -73 265 -151 0 -65
-13 -132 -26 -137 -7 -2 -47 12 -88 31 -135 64 -178 78 -263 83 -97 7 -131 -4
-169 -55 -50 -65 -32 -151 42 -194 16 -9 81 -26 144 -38 63 -11 138 -27 165
-35 72 -20 167 -85 203 -137 47 -69 62 -194 34 -294 -24 -84 -117 -176 -212
-209 -106 -37 -322 -25 -453 25 -159 60 -231 194 -148 274 l27 26 55 -38 c30
-22 72 -49 94 -60 91 -46 297 -67 366 -38 58 24 82 59 83 117 1 45 -3 54 -31
79 -34 31 -79 46 -243 84 -58 13 -130 34 -161 45 -177 67 -254 270 -169 447
40 82 129 148 241 178 73 20 115 19 244 -3z m1242 3 c174 -36 253 -87 253
-164 0 -33 -6 -48 -29 -71 -41 -40 -80 -38 -183 11 -95 46 -181 65 -247 55
-35 -5 -55 -16 -88 -49 -49 -49 -60 -83 -44 -137 17 -57 64 -83 201 -113 320
-69 402 -121 429 -272 13 -72 2 -154 -32 -228 -56 -122 -146 -180 -301 -191
-177 -13 -347 26 -435 102 -50 42 -67 72 -76 135 -7 45 9 122 24 116 4 -2 63
-31 131 -65 135 -68 244 -96 342 -87 116 9 191 93 158 175 -17 40 -42 51 -205
93 -271 68 -363 117 -411 221 -43 91 -26 239 37 331 29 42 83 90 129 114 77
41 220 51 347 24z m2836 -4 c107 -24 170 -51 191 -82 20 -31 37 -139 24 -155
-20 -25 -111 -15 -213 22 -54 20 -123 38 -154 41 -141 15 -320 -77 -381 -196
-51 -99 -52 -268 -2 -374 75 -160 206 -236 383 -223 177 14 287 105 265 220
-13 68 -76 86 -222 66 -124 -17 -127 -15 -135 87 -3 43 -2 90 3 103 l9 24 247
-7 c141 -4 251 -11 257 -17 6 -6 10 -91 10 -212 0 -169 -3 -210 -18 -254 -43
-123 -204 -192 -449 -193 -238 0 -337 29 -432 126 -118 120 -184 314 -173 504
15 261 147 440 380 516 96 31 280 33 410 4z m1541 -70 c-1 -49 -6 -94 -10
-101 -5 -9 -88 -11 -328 -8 l-321 4 -3 -147 c-2 -135 -1 -148 15 -150 10 -2
139 -3 288 -3 l269 0 2 -102 1 -103 -282 0 -283 0 -7 -72 c-4 -40 -5 -102 -3
-138 l3 -65 330 -5 330 -5 6 -80 c4 -53 2 -83 -5 -87 -10 -7 -694 -15 -781 -9
-22 2 -43 7 -46 13 -7 10 -19 1116 -12 1133 2 6 154 11 422 12 l418 3 -3 -90z
m1628 70 c104 -32 160 -103 174 -222 14 -118 -35 -206 -180 -322 -34 -26 -62
-50 -64 -51 -2 -1 19 -15 45 -30 26 -16 70 -48 97 -72 26 -23 52 -43 56 -43 4
0 11 12 15 27 14 56 55 129 82 145 57 34 112 -1 120 -76 9 -75 -4 -112 -58
-172 -27 -30 -49 -57 -49 -60 0 -4 29 -37 64 -74 96 -102 101 -176 15 -202
-38 -11 -45 -10 -88 13 -35 18 -51 36 -72 76 l-25 52 -38 -38 c-84 -86 -190
-117 -362 -108 -162 8 -235 52 -292 176 -73 159 -18 326 135 413 l52 30 -19
21 c-32 34 -60 101 -72 170 -14 83 8 202 47 253 77 101 261 142 417 94z m2000
5 c86 -18 195 -70 220 -105 10 -14 21 -49 25 -78 5 -42 2 -56 -12 -72 -10 -11
-22 -20 -28 -20 -5 0 -59 20 -121 45 -204 81 -333 81 -405 0 -50 -57 -53 -104
-10 -159 33 -41 84 -61 219 -86 199 -36 291 -78 357 -162 133 -167 37 -430
-183 -498 -110 -34 -273 -24 -440 25 -141 43 -207 115 -190 208 6 35 40 87 55
87 5 0 44 -24 87 -53 105 -72 221 -107 349 -107 100 0 185 70 185 152 0 72
-32 89 -279 148 -179 43 -289 109 -339 203 -23 45 -27 64 -27 137 0 71 4 94
26 140 29 62 103 140 157 166 89 43 230 54 354 29z m1278 -6 c35 -6 83 -18
106 -29 134 -59 222 -255 194 -433 -21 -138 -84 -223 -205 -278 -84 -38 -161
-49 -337 -49 l-148 0 3 -167 2 -168 -60 -12 c-33 -7 -75 -12 -94 -10 -29 2
-36 7 -43 32 -6 22 -5 1106 1 1122 1 1 49 4 109 6 148 6 394 -2 472 -14z"/>
<path d="M13772 25378 c-10 -18 -29 -53 -42 -78 -12 -25 -93 -153 -180 -285
-521 -795 -785 -1316 -961 -1899 -138 -459 -230 -1190 -198 -1576 31 -378 109
-816 196 -1100 56 -186 62 -203 168 -460 53 -129 225 -468 302 -595 239 -393
413 -657 562 -853 47 -63 96 -128 108 -145 11 -18 34 -47 50 -65 l28 -32 105
121 c58 67 110 127 116 133 32 34 214 261 286 358 96 129 166 239 295 463 51
88 217 419 242 482 10 27 30 73 44 103 65 143 115 291 167 495 26 105 57 224
68 265 12 41 30 131 41 200 12 69 27 150 35 180 15 59 39 202 56 340 14 111
13 445 0 563 -11 90 -21 149 -80 467 -100 541 -204 863 -479 1483 -166 374
-199 441 -299 607 -170 284 -576 860 -606 860 -2 0 -13 -15 -24 -32z"/>
<path d="M17875 23654 c-130 -47 -701 -327 -887 -435 -275 -160 -551 -407
-814 -729 -217 -266 -388 -541 -434 -697 -6 -21 -15 -123 -20 -228 -10 -213
-29 -403 -60 -608 -28 -184 -196 -849 -231 -917 -4 -8 -13 -36 -20 -63 -6 -26
-16 -50 -20 -53 -5 -3 -9 -12 -9 -19 0 -8 -11 -38 -24 -67 -14 -29 -28 -66
-31 -81 -4 -15 -11 -27 -15 -27 -4 0 -10 -12 -13 -27 -4 -25 -30 -89 -98 -243
-96 -218 -300 -577 -423 -745 -69 -93 -97 -141 -89 -148 11 -12 50 -8 80 7 15
8 80 36 143 61 255 104 348 147 480 220 254 139 416 251 745 513 133 106 467
431 618 602 56 63 125 137 153 165 28 27 54 60 58 73 4 12 14 22 22 22 8 0 14
6 14 13 0 7 13 28 30 47 43 49 129 178 136 206 3 13 10 24 14 24 4 0 11 12 14
26 4 15 18 41 32 59 13 17 24 36 24 40 0 5 8 17 18 28 9 11 11 17 5 13 -19
-11 -16 -1 16 46 52 78 245 468 281 568 7 19 18 49 25 65 8 17 30 80 50 140
20 61 41 119 45 130 23 52 52 147 65 210 7 39 25 124 40 190 42 193 78 454
105 780 6 72 13 144 15 160 2 17 6 102 10 190 3 88 8 174 10 190 2 17 7 94 11
173 7 160 10 156 -71 126z"/>
<path d="M9713 23389 c18 -763 98 -1331 251 -1794 165 -496 389 -942 644
-1280 246 -327 658 -751 957 -986 260 -204 569 -402 830 -532 150 -74 644
-278 657 -271 4 3 -15 33 -43 67 -75 92 -294 421 -394 592 -274 469 -474 997
-579 1530 -104 525 -106 540 -110 846 -2 134 -8 255 -14 269 -5 14 -25 48 -44
75 -19 28 -76 118 -127 200 -184 298 -266 405 -470 617 -214 223 -440 402
-672 535 -242 137 -423 223 -794 378 -17 7 -45 16 -64 20 l-34 7 6 -273z"/>
<path d="M18780 20275 c-47 -7 -103 -17 -125 -23 -22 -6 -67 -13 -100 -17 -33
-3 -71 -9 -85 -14 -14 -5 -50 -14 -80 -20 -107 -23 -225 -53 -245 -61 -11 -5
-65 -22 -120 -39 -55 -18 -109 -35 -120 -40 -11 -5 -60 -26 -110 -46 -112 -47
-238 -109 -290 -145 -22 -14 -85 -56 -140 -92 -134 -87 -225 -161 -445 -363
-606 -556 -801 -702 -1410 -1055 -117 -67 -215 -118 -321 -165 -143 -64 -429
-178 -516 -206 -40 -13 -73 -28 -73 -34 0 -20 224 -61 485 -90 401 -44 1072
-46 1345 -4 291 44 668 149 920 256 107 46 380 184 480 243 184 108 388 257
525 382 17 16 39 28 51 28 25 0 69 44 59 59 -3 6 2 11 13 11 17 0 207 180 232
220 6 8 10 12 10 8 0 -9 50 41 50 50 0 4 17 23 38 42 20 19 52 58 70 87 18 28
40 57 49 65 9 7 43 49 76 93 33 44 65 85 71 90 22 19 56 82 48 89 -4 4 -1 6 6
4 8 -2 19 11 25 28 13 33 149 214 157 209 3 -2 14 14 24 35 10 22 24 38 30 37
5 -1 18 13 27 31 10 19 30 46 46 60 15 15 29 34 31 42 2 8 16 29 32 45 125
131 122 147 -35 175 -27 4 -90 16 -140 24 -105 19 -407 19 -545 1z"/>
<path d="M8440 20270 c-152 -10 -370 -43 -370 -55 0 -13 138 -207 239 -335
111 -142 205 -271 409 -560 228 -324 525 -606 902 -857 308 -205 579 -333 967
-457 277 -88 503 -137 738 -158 182 -16 739 -15 1010 1 309 19 735 73 735 92
0 6 -161 79 -174 79 -10 0 -561 247 -648 291 -422 212 -809 473 -1118 755
-307 280 -562 497 -785 666 -311 236 -750 408 -1260 492 -250 42 -468 57 -645
46z"/>
<path d="M13772 17568 c-11 -18 -27 -58 -37 -88 -49 -151 -308 -588 -481 -810
-123 -158 -129 -169 -127 -233 3 -116 76 -375 154 -548 113 -251 342 -565 512
-701 l37 -30 80 72 c85 77 156 164 288 351 98 140 154 241 182 334 12 39 39
124 61 190 39 121 64 244 75 364 7 76 12 67 -124 228 -76 89 -288 397 -355
515 -15 25 -61 114 -102 196 -66 133 -108 192 -136 192 -4 0 -16 -15 -27 -32z"/>
<path d="M14456 17438 c48 -93 208 -318 293 -410 136 -148 412 -365 581 -456
245 -132 559 -226 940 -281 193 -28 207 -29 395 -42 303 -20 615 -10 870 27
129 19 138 21 133 34 -8 22 -370 389 -455 461 -236 198 -489 328 -868 447
-255 80 -338 92 -790 112 -121 6 -245 13 -275 16 -216 21 -623 80 -758 108
-40 9 -75 16 -78 16 -2 0 3 -15 12 -32z"/>
<path d="M12870 17410 c-299 -48 -405 -58 -930 -90 -388 -23 -671 -78 -909
-176 -210 -87 -480 -251 -665 -405 -141 -118 -417 -414 -399 -429 20 -17 241
-46 537 -71 184 -15 435 0 861 51 310 38 710 157 944 281 230 122 479 339 687
599 160 200 220 294 186 289 -4 0 -144 -23 -312 -49z"/>
<path d="M18485 16080 c3 -5 11 -10 16 -10 6 0 7 5 4 10 -3 6 -11 10 -16 10
-6 0 -7 -4 -4 -10z"/>
<path d="M15721 10618 c-28 -56 -245 -569 -306 -722 -26 -66 -62 -153 -81
-194 -19 -41 -34 -76 -34 -77 0 -2 201 -4 446 -5 360 0 445 2 441 12 -77 196
-216 533 -274 663 -117 263 -140 318 -148 343 -9 32 -19 27 -44 -20z"/>
<path d="M22127 10693 c-8 -15 -40 -95 -71 -176 -31 -81 -86 -219 -121 -305
-104 -253 -225 -575 -219 -581 3 -3 201 -7 440 -9 l435 -3 -17 38 c-15 37 -86
219 -144 373 -30 78 -34 89 -143 355 -62 154 -136 326 -143 333 -1 2 -9 -9
-17 -25z"/>
<path d="M9686 10971 c2 -217 4 -833 4 -1369 0 -537 2 -973 5 -970 9 9 5 2480
-4 2608 -7 93 -8 23 -5 -269z"/>
<path d="M9960 11163 c-26 -2 -50 -11 -57 -20 -10 -13 -13 -152 -13 -615 l0
-598 93 0 c174 1 332 18 411 45 176 61 309 162 365 278 57 118 62 374 11 538
-50 163 -218 300 -427 350 -88 20 -286 32 -383 22z"/>
<path d="M9893 9855 c0 -38 2 -53 4 -32 2 20 2 52 0 70 -2 17 -4 1 -4 -38z"/>
<path d="M11932 6878 c-38 -68 -136 -291 -151 -343 -6 -24 -7 -43 -1 -49 5 -5
82 -8 172 -8 102 0 167 -3 175 -10 8 -6 16 -9 19 -6 4 4 -75 209 -159 411
l-25 59 -30 -54z"/>
<path d="M21088 6844 c-8 -16 -33 -63 -56 -104 -49 -92 -117 -248 -110 -255 8
-8 356 -11 364 -3 8 8 -1 31 -64 172 -24 55 -58 120 -75 145 -18 25 -35 52
-38 60 -4 11 -10 7 -21 -15z"/>
<path d="M8047 6880 c-27 -63 -128 -410 -122 -420 6 -9 28 -8 180 10 50 6 107
11 128 12 20 1 37 4 37 7 0 32 -177 412 -198 425 -4 2 -15 -13 -25 -34z"/>
<path d="M16565 6995 c-52 -28 -65 -53 -65 -130 0 -115 49 -171 130 -146 116
35 165 171 91 252 -33 38 -109 49 -156 24z"/>
<path d="M16435 6457 c-57 -32 -71 -66 -56 -133 18 -77 77 -140 151 -159 31
-8 70 -12 89 -9 39 8 111 74 111 102 0 26 -49 96 -113 165 -50 53 -58 57 -98
57 -27 0 -60 -9 -84 -23z"/>
<path d="M19794 6991 c-100 -16 -128 -76 -127 -270 0 -107 3 -126 18 -137 24
-17 112 -29 220 -29 97 0 146 17 192 67 75 80 70 223 -10 306 -48 50 -187 79
-293 63z"/>
</g>
</svg>
